<?xml version="1.0" standalone="no"?>
<!DOCTYPE svg PUBLIC "-//W3C//DTD SVG 20010904//EN"
 "http://www.w3.org/TR/2001/REC-SVG-20010904/DTD/svg10.dtd">
<svg version="1.0" xmlns="http://www.w3.org/2000/svg"
 width="700.000000pt" height="700.000000pt" viewBox="0 0 700.000000 700.000000"
 preserveAspectRatio="xMidYMid meet">
<metadata>
Created by potrace 1.11, written by Peter Selinger 2001-2013
</metadata>
<g transform="translate(0.000000,700.000000) scale(0.100000,-0.100000)"
fill="#000000" stroke="none">
<path d="M3433 6909 c-17 -5 -87 -41 -155 -80 -68 -39 -141 -81 -163 -94 -22
-12 -222 -127 -445 -255 -223 -129 -423 -243 -445 -255 -22 -12 -80 -46 -130
-75 -49 -29 -105 -61 -123 -71 -18 -11 -63 -36 -100 -57 -37 -21 -220 -127
-407 -234 -187 -108 -356 -204 -375 -215 -140 -79 -454 -260 -493 -285 -29
-19 -58 -49 -75 -77 l-27 -46 -1 -1630 c0 -896 3 -1645 7 -1663 15 -67 53
-105 174 -172 22 -12 123 -71 225 -129 102 -59 304 -176 450 -260 146 -84 272
-156 280 -161 18 -11 448 -258 500 -287 19 -11 59 -34 88 -52 29 -17 55 -31
58 -31 2 0 21 -11 42 -23 29 -19 715 -415 797 -461 11 -6 83 -47 159 -91 119
-68 147 -80 195 -83 45 -3 65 0 96 18 22 12 58 32 80 43 22 12 47 26 55 33 8
6 44 27 80 46 36 20 169 95 295 168 289 166 719 413 836 479 25 14 222 127
437 251 215 124 399 230 409 235 73 41 485 277 513 294 19 11 51 29 71 40 57
32 99 71 114 108 22 52 22 3303 1 3355 -21 49 -58 82 -150 135 -45 25 -90 51
-101 57 -63 36 -251 144 -278 160 -92 53 -391 224 -447 256 -36 20 -152 87
-259 148 -107 62 -196 112 -199 112 -3 0 -13 6 -21 14 -9 7 -41 27 -71 43 -47
26 -296 167 -340 193 -8 5 -247 141 -530 303 -532 305 -556 316 -627 296z
m274 -262 c109 -63 338 -194 508 -292 171 -97 321 -184 335 -193 14 -9 27 -17
30 -17 3 0 21 -10 40 -22 47 -29 481 -278 550 -316 30 -16 67 -38 82 -49 14
-10 28 -18 31 -18 3 0 83 -45 177 -100 95 -55 174 -100 176 -100 3 0 23 -11
45 -26 22 -14 57 -34 76 -45 250 -141 532 -305 547 -320 19 -17 19 -54 19
-1635 0 -1581 0 -1617 -19 -1631 -19 -15 -110 -69 -194 -115 -25 -14 -163 -94
-308 -177 -145 -83 -267 -151 -273 -151 -5 0 -9 -4 -9 -10 0 -5 -5 -10 -10
-10 -6 0 -27 -10 -48 -23 -20 -13 -62 -37 -92 -54 -30 -17 -129 -73 -220 -125
-199 -115 -621 -357 -682 -391 -23 -13 -225 -129 -448 -257 -223 -128 -418
-239 -435 -249 -16 -9 -41 -24 -54 -34 -32 -23 -69 -22 -111 5 -31 19 -89 52
-145 82 -11 6 -27 16 -35 22 -8 6 -44 27 -80 47 -36 19 -238 135 -450 257
-212 122 -401 231 -420 242 -134 77 -359 206 -700 403 -473 272 -455 262 -505
290 -267 152 -413 239 -426 254 -15 18 -16 168 -16 1630 0 1158 3 1615 11
1625 6 8 34 27 62 43 27 15 179 102 337 193 157 91 315 181 349 201 87 49 111
63 373 214 127 72 250 143 275 157 25 14 173 100 330 190 1127 649 1089 627
1111 623 10 -2 107 -55 216 -118z"/>
<path d="M2422 3518 l3 -1853 318 0 c277 0 317 1 318 15 0 8 1 708 2 1555 l2
1540 320 0 c365 -1 483 -7 575 -31 232 -60 310 -188 308 -511 -1 -355 -99
-489 -388 -529 -61 -9 -141 -12 -307 -13 l-163 -1 0 -297 0 -298 197 2 c277 2
378 12 543 53 236 60 431 187 563 367 75 103 157 302 173 420 3 26 8 50 9 54
20 32 23 338 5 470 -63 477 -366 788 -850 873 -47 8 -101 18 -120 22 -19 4
-367 9 -773 11 l-737 4 2 -1853z"/>
</g>
</svg>
