<?xml version="1.0" encoding="utf-8"?>
<!-- Generator: Adobe Illustrator 18.0.0, SVG Export Plug-In . SVG Version: 6.00 Build 0)  -->
<!DOCTYPE svg PUBLIC "-//W3C//DTD SVG 1.1//EN" "http://www.w3.org/Graphics/SVG/1.1/DTD/svg11.dtd">
<svg version="1.1" id="Layer_1" xmlns="http://www.w3.org/2000/svg" xmlns:xlink="http://www.w3.org/1999/xlink" x="0px" y="0px"
	 viewBox="0 0 484.8 103.2" enable-background="new 0 0 484.8 103.2" xml:space="preserve">
<g>
	<g>
		<path fill="#FFFFFF" stroke="#FFFFFF" stroke-miterlimit="10" d="M67.2,85V3H73v76.9h39.2V85H67.2z"/>
		<path fill="#FFFFFF" stroke="#FFFFFF" stroke-miterlimit="10" d="M175.1,85l-9.5-25.7h-36l1.8-4.4h32.7L145.5,3h5.2l30.9,82H175.1
			z"/>
		<path fill="#FFFFFF" stroke="#FFFFFF" stroke-miterlimit="10" d="M247.8,85L204.3,9.9V85h-5.1V3h7.9l43.2,75.1V3h5.6v82H247.8z"/>
		<path fill="#FFFFFF" stroke="#FFFFFF" stroke-miterlimit="10" d="M283.1,85V3h43.6v4.7H289v32.6h35.1V45H289v35.4h38.9V85H283.1z"
			/>
		<path fill="#FFFFFF" stroke="#FFFFFF" stroke-miterlimit="10" d="M377.8,87c-23.8,0-32.4-18.5-32.4-43c0-22.8,7.7-42.3,33.2-42.3
			c7.1,0,12.9,0.9,19.1,2.9l-2.3,5.3c-5.3-2.3-10.8-3.5-16.9-3.5c-21.8,0-27.1,18.5-27.1,37.5c0,20.1,5.8,38.4,26.4,38.4
			c6.1,0,11.9-1.5,18.5-4.2l2.3,5.3C391.3,86,385,87,377.8,87z"/>
		<g>
			<g>
				<g>
					<path fill="#FFFFFF" d="M482.8,44.3c0-24.3-7.3-42.6-33.1-42.6c-25,0-33.7,18.2-33.7,42.6c0,16.3,3.4,29.9,13.5,37.1l3.7-4.4
						c-8.7-6.2-11.1-18.5-11.1-32.7c0-21.8,5.7-37.9,27.5-37.9c21.8,0,27.1,16.1,27.1,37.9c0,20.3-4.9,36.5-24.3,37.9l21.1,19.2
						l4.9-3.3l-16.3-13C477.3,79.7,482.8,64,482.8,44.3z"/>
				</g>
			</g>
			<g>
				<g>
					<path fill="none" stroke="#FFFFFF" stroke-miterlimit="10" d="M482.8,44.3c0-24.3-7.3-42.6-33.1-42.6
						c-25,0-33.7,18.2-33.7,42.6c0,16.3,3.4,29.9,13.5,37.1l3.7-4.4c-8.7-6.2-11.1-18.5-11.1-32.7c0-21.8,5.7-37.9,27.5-37.9
						c21.8,0,27.1,16.1,27.1,37.9c0,20.3-4.9,36.5-24.3,37.9l21.1,19.2l4.9-3.3l-16.3-13C477.3,79.7,482.8,64,482.8,44.3z"/>
				</g>
			</g>
		</g>
		<path fill="#FFFFFF" stroke="#FFFFFF" stroke-miterlimit="10" d="M23.2,3.3H1.7v82h6V50.4v-0.8v-4.9v-0.3V8.3H23
			c13.3,0,20.7,4.1,20.7,18.1c0,14.7-6.7,18.9-20,18.9h-9.9v5h10.9c16.5,0,25.1-7.8,25.1-23.9C49.7,9.9,39.9,3.3,23.2,3.3z"/>
	</g>
</g>
</svg>
