<?xml version="1.0" encoding="utf-8"?>
<!-- Generator: Adobe Illustrator 18.0.0, SVG Export Plug-In . SVG Version: 6.00 Build 0)  -->
<!DOCTYPE svg PUBLIC "-//W3C//DTD SVG 1.1//EN" "http://www.w3.org/Graphics/SVG/1.1/DTD/svg11.dtd">
<svg version="1.1" xmlns="http://www.w3.org/2000/svg" xmlns:xlink="http://www.w3.org/1999/xlink" x="0px" y="0px"
	 viewBox="0 0 141.7 141.7" enable-background="new 0 0 141.7 141.7" xml:space="preserve">
<g id="back" display="none">
	<rect x="-2.5" y="-2.5" display="inline" fill="#231F20" stroke="#231F20" stroke-miterlimit="10" width="147" height="147"/>
</g>
<g id="P">
	<g>
		<path fill="none" stroke="#FFFFFF" stroke-width="8" stroke-miterlimit="10" d="M58,68.4V42h15.7c10.8,0,16.8,3.3,16.8,14.7
			c0,11.9-5.5,15.3-16.3,15.3H73v4h2.1c13.4,0,20.4-6.2,20.4-19.3c0-13.4-7.9-18.7-21.5-18.7H53v67h5V72.3l0,0V68.4L58,68.4z"/>
	</g>
</g>
<g id="hexa">
	<path fill="none" stroke="#FFFFFF" stroke-width="3" stroke-miterlimit="10" d="M128.3,106l-56.7,32.5c-0.7,0.4-1.6,0.4-2.4,0
		L12.7,106c-0.7-0.4-1.2-1.2-1.2-2.1V39.1c0-0.9,0.5-1.6,1.2-2.1L69.3,4.5c0.7-0.4,1.6-0.4,2.4,0L128.3,37c0.7,0.4,1.2,1.2,1.2,2.1
		v64.9C129.5,104.8,129.1,105.6,128.3,106z"/>
</g>
</svg>
